<?xml version="1.0" encoding="UTF-8"?>
<svg id="Layer_1" data-name="Layer 1" xmlns="http://www.w3.org/2000/svg" viewBox="0 0 70 70">
  <defs>
    <style>
      .cls-1 {
        fill: #ff2e83;
      }

      .cls-2 {
        fill: #339165;
      }

      .cls-3 {
        fill: #ffb4b4;
      }

      .cls-4 {
        fill: #82bfa2;
      }

      .cls-5 {
        fill: #ffd8b1;
      }
    </style>
  </defs>
  <path class="cls-4" d="M14.2,31.8c7.8,7.8,21.5,2.3,21.5,2.3,0,0-20.8,12.1-28.6,4.3C-.7,30.6,2.4,14.8,2.4,14.8c0,0,4,9.1,11.8,16.9Z"/>
  <g>
    <path class="cls-3" d="M29.6,3.6c-3.7.6-6.3,3.6-4.8,12.3s10.2,19.1,10.2,19.1c0,0,4.7-12.8,3.2-21.4-1.5-8.7-4.9-10.6-8.6-10Z"/>
    <path class="cls-3" d="M59.5,14.6c-2.4-2.9-6.2-3.6-13,2-6.8,5.6-11.5,18.4-11.5,18.4,0,0,13.4-2.3,20.2-7.9,6.8-5.6,6.7-9.5,4.3-12.4Z"/>
    <path class="cls-3" d="M56.7,35.8c-8.3-3-21.7-.8-21.7-.8,0,0,8.7,10.5,17,13.5,8.3,3,11.6,1,12.9-2.5,1.3-3.5,0-7.2-8.2-10.3Z"/>
    <path class="cls-3" d="M40.4,66.4c3.7-.6,6.3-3.6,4.8-12.3s-10.2-19.1-10.2-19.1c0,0-4.7,12.8-3.2,21.4,1.5,8.7,4.9,10.6,8.6,10Z"/>
    <path class="cls-3" d="M10.5,55.4c2.4,2.9,6.2,3.6,13-2,6.8-5.6,11.5-18.4,11.5-18.4,0,0-13.4,2.3-20.2,7.9-6.8,5.6-6.7,9.5-4.3,12.4Z"/>
    <path class="cls-3" d="M18,21.5c-8.3-3-11.6-1-12.9,2.5-1.3,3.5,0,7.2,8.2,10.3,8.3,3,21.7.8,21.7.8,0,0-8.7-10.5-17-13.5Z"/>
  </g>
  <g>
    <path class="cls-5" d="M35,2.5c-3.8,0-6.9,2.5-6.9,11.5s6.9,21,6.9,21c0,0,6.9-12,6.9-21s-3.1-11.5-6.9-11.5Z"/>
    <path class="cls-5" d="M63.1,18.8c-1.9-3.3-5.6-4.7-13.4-.2-7.8,4.5-14.7,16.5-14.7,16.5,0,0,13.9,0,21.7-4.5,7.8-4.5,8.4-8.4,6.5-11.7Z"/>
    <path class="cls-5" d="M56.7,39.5c-7.8-4.5-21.7-4.5-21.7-4.5,0,0,7,12,14.7,16.5s11.5,3.1,13.4-.2c1.9-3.3,1.3-7.3-6.5-11.7Z"/>
    <path class="cls-5" d="M35,67.5c3.8,0,6.9-2.5,6.9-11.5s-6.9-21-6.9-21c0,0-6.9,12-6.9,21s3.1,11.5,6.9,11.5Z"/>
    <path class="cls-5" d="M6.9,51.2c1.9,3.3,5.6,4.7,13.4.2,7.8-4.5,14.7-16.5,14.7-16.5,0,0-13.9,0-21.7,4.5-7.8,4.5-8.4,8.4-6.5,11.7Z"/>
    <path class="cls-5" d="M20.3,18.5c-7.8-4.5-11.5-3.1-13.4.2-1.9,3.3-1.3,7.3,6.5,11.7,7.8,4.5,21.7,4.5,21.7,4.5,0,0-7-12-14.7-16.5Z"/>
  </g>
  <g>
    <path class="cls-1" d="M31.3,29.3c1.6-5.7-6.9-7.1-10.3-4.3-1.9,1.4-2.1,3.9-1.3,6.3,1,3.7,6.3,3.3,9.7,3.7,2,.2,4.6.7,5.9,2.5,3.1,4.9,0,12.6-6.2,13.4-3.3,0-5.9-1.8-7.7-3.8,4.8,3,11,2.1,12.5-2.8,1.8-7.2-3-6.8-8.9-7.4-1.4-.2-2.9-.4-4.4-1.2-4.3-2.3-5-9.4-1-12.4,4.9-4.2,15.7-1.2,11.8,6h0Z"/>
    <path class="cls-2" d="M53.2,21.5c-2.6,3.2-5.5,6.5-8.7,8.7-1.1.7-2.2,1.2-3,1-2.1-.7-2.9-3.9-3.3-6.2-.5-1.3-.9-2.7-1.3-4.1-.9,4.2,0,10.6,4.1,12.1-.6,13.7-7.8,21.8-19.1,26.3-3.6,1.2-7.1,2.4-10.6,4.1,1.9,0,3.8-.3,5.7-.4,9.1-2.7,19-7.7,23.3-18.1,1.6-3.7,2.2-8,1.1-11.8.1,0,.2,0,.4.1,4-.3,7.2-4.3,10-7.1,2-2.1,3.7-4.5,4.8-7.3,0,0-3.2,2.7-3.2,2.7Z"/>
  </g>
</svg>